<?xml version="1.0" encoding="utf-8"?>
<!-- Generator: Adobe Illustrator 23.0.3, SVG Export Plug-In . SVG Version: 6.00 Build 0)  -->
<svg version="1.1" id="Layer_1" xmlns="http://www.w3.org/2000/svg" xmlns:xlink="http://www.w3.org/1999/xlink" x="0px" y="0px"
	 viewBox="0 0 1748 896" width="1748" height="896" style="enable-background:new 0 0 1748 896;" xml:space="preserve">
<style type="text/css">
	.st0{fill:#6CC551;}
	.st1{fill:#D81E5B;}
	.st2{fill:#5340FF;}
	.st3{fill:#FFFFFF;}
	.st4{fill:#FFFFFF;fill-opacity:0;}
</style>
<title>Instant Revamp</title>
<circle class="st0" cx="952.1" cy="290.1" r="173.7"/>
<path class="st1" d="M151.2,134.6h219.3c25.7,0,46.6,20.9,46.6,46.6v219.3c0,25.7-20.9,46.6-46.6,46.6H151.2
	c-25.7,0-46.6-20.9-46.6-46.6V181.2C104.6,155.5,125.5,134.6,151.2,134.6z"/>
<path class="st2" d="M466.8,895l259.9-0.2c28.7-0.1,46.6-31.1,32.3-55.9l-130.1-225c-14.3-24.9-50.2-24.8-64.5,0L434.6,839.1
	C420.2,863.9,438.2,894.9,466.8,895L466.8,895z"/>
<path class="st3" d="M450.7,834.7l-0.2-0.2l0.4-0.3l0.2,0.2L450.7,834.7z"/>
<rect x="196.3" y="768" class="st4" width="39.6" height="39.6"/>
<path d="M59.4,18.8L57.1,430L0,429.6C0.8,286.4,1.7,143.2,2.5,0L59.4,18.8z"/>
<path d="M595.9,549.2c-23.3-0.2-43.3-3.3-60-9.5s-30.3-14.4-40.8-24.5S476.9,494,471.8,482l49.2-20c4,6.4,8.6,12.5,13.7,18
	c5.7,6.3,13.5,11.8,23.6,16.3s22.8,6.8,38.6,6.9c21.6,0.1,39.6-5,53.7-15.4s21.3-27.1,21.5-50l0.3-57.6h-3.6
	c-4.3,7.4-9.3,14.3-14.9,20.7c-6.5,7.6-15.3,14.1-26.6,19.7c-11.2,5.5-25.8,8.2-43.7,8.1c-23.1-0.1-43.9-5.7-62.4-16.7
	s-33-27.2-43.6-48.5c-10.6-21.4-15.8-47.6-15.6-78.8s5.6-57.8,16.4-80.1c10.8-22.2,25.5-39.2,44.1-51c18.6-11.8,39.7-17.6,63.2-17.4
	c18.2,0.1,32.9,3.2,44,9.3c11.2,6.2,19.8,13.2,26.1,21.3c5.4,6.7,10.2,13.8,14.5,21.3h4.2l0.5-55.9l55.7,18.4L729,440.4
	c-0.2,25.2-6.2,45.8-17.9,61.9c-11.8,16.1-27.7,28-47.7,35.6C643.3,545.5,620.9,549.3,595.9,549.2z M596.4,381.4
	c16.4,0.1,30.3-3.6,41.8-11.3s20.2-18.6,26.2-33s9-31.7,9.2-52c0.1-19.7-2.7-37.1-8.5-52.1s-14.3-26.8-25.5-35.4
	c-11.3-8.5-25.3-12.8-41.9-12.9c-17.2-0.1-31.5,4.2-43,13s-20.2,20.7-26.1,35.8s-8.8,32-9,50.7c-0.1,19.2,2.7,36.1,8.4,50.6
	c5.8,14.5,14.4,25.9,25.9,34.2C565.3,377.1,579.5,381.3,596.4,381.4L596.4,381.4z"/>
<path d="M0,893.6C0.6,793,1.1,692.5,1.7,591.9l54.8,18l-0.3,38.6h3.6c6.3-16.1,16.3-28.7,30.2-37.7s30.5-13.5,49.8-13.3
	c19.6,0.1,36,4.8,49.3,14c13.2,9.2,23,21.9,29.2,38h3c7.1-15.6,18.3-28,33.6-37.2s33.6-13.8,54.7-13.7c26.6,0.2,48.3,8.6,65,25.4
	c16.8,16.8,25,41.9,24.8,75.5l-1,196.5l-57-0.3l1.1-191.2c0.1-19.8-5.2-34.3-16-43.2c-10.8-9-23.6-13.5-38.6-13.6
	c-18.6-0.1-33.1,5.5-43.5,16.8s-15.6,25.9-15.7,43.7L227.6,895l-56.8-0.3l1.1-194.8c0.1-15.9-4.8-28.7-14.6-38.4
	s-22.7-14.7-38.6-14.7c-10.6-0.2-21,2.7-30,8.3c-9.2,5.8-16.8,13.9-22,23.4c-5.6,10-8.4,21.6-8.5,34.9l-1,180.7L0,893.6z"/>
<path d="M780.6,894.5l2.6-441.4c9.4,3.8,18.9,7.7,28.5,11.8s19.1,8.2,28.5,12.5l-2.5,417.5L780.6,894.5z M833.6,795.4v-69.7l9.9,0.1
	l117.6-123.4l68.3,0.4l-134,140.5h-9L833.6,795.4z M965.7,895.6L861.6,755.7l39.5-39.6l134.6,180L965.7,895.6z"/>
<path d="M1193.7,896c-28.9-0.2-53.7-6.5-74.4-19s-36.6-30.1-47.8-52.8c-11.1-22.7-16.6-49.2-16.4-79.6c0.2-30,6-56.4,17.4-79.3
	c11.5-22.8,27.3-40.6,47.7-53.3s44.2-19,71.4-18.9c16.4,0.1,32.6,3,48.1,8.5c15.6,5.6,29.8,14.5,41.6,26
	c12.3,11.8,21.9,27,28.9,45.7s10.4,41.3,10.3,67.9l-0.1,20.2l-233-1.4l0.3-42.7l177.1,1.1c0.1-15-2.9-28.4-8.9-40.1
	c-5.8-11.4-14.6-21-25.4-27.7c-11-6.8-23.9-10.3-38.6-10.4c-16-0.1-30,3.7-42,11.5c-11.7,7.5-21.2,18-27.6,30.4
	c-6.5,12.6-9.9,26.5-9.9,40.7l-0.2,33.4c-0.1,19.6,3.3,36.2,10.1,50s16.5,24.3,29,31.6s26.9,10.9,43.6,11
	c10.1,0.2,20.1-1.3,29.6-4.5c8.6-2.9,16.5-7.7,23.2-13.9c6.7-6.4,11.8-14.3,15-23l52,16.8c-2.4,6.6-5.5,12.9-9.2,18.9
	c-3.6,5.7-7.7,11.1-12.3,16c-11.2,11.8-25.2,21-41.9,27.4C1234.1,893,1215.1,896.1,1193.7,896z"/>
<path d="M1383,895.7l1.7-301.8l55.2,18c-0.1,12.6-0.2,25.1-0.3,37.7h3.1c5.1-15.2,15.2-28.3,28.6-37.1c13.6-9,29-13.5,46.1-13.4
	c3.5,0,7.8,0.2,12.7,0.5s8.8,0.6,11.6,1l-0.3,54.6c-4-1-8.1-1.8-12.2-2.3c-5.8-0.8-11.7-1.3-17.6-1.3c-13.5-0.1-25.5,2.7-36,8.3
	c-10.3,5.4-18.9,13.4-25,23.3c-6.2,9.9-9.3,21.3-9.4,34l-1,179L1383,895.7z"/>
<path d="M1589.4,895.7c0.5-100.6,1-201.2,1.5-301.8l55.2,18.4c0,12.4-0.1,24.8-0.1,37.2h3.1c5.1-15.2,15.2-28.3,28.6-37.1
	c13.6-9,29-13.5,46.1-13.3c3.6,0,7.8,0.2,12.7,0.4s8.8,0.7,11.6,1l-0.3,54.6c-4-1-8.1-1.8-12.2-2.3c-5.8-0.8-11.7-1.3-17.6-1.3
	c-13.5-0.1-25.5,2.7-36,8.3c-10.3,5.4-18.9,13.4-25,23.3c-6.2,10-9.3,21.3-9.4,34l-1,179L1589.4,895.7z"/>
</svg>
